<?xml version="1.0" encoding="iso-8859-1"?>
<!-- Generator: Adobe Illustrator 19.2.1, SVG Export Plug-In . SVG Version: 6.00 Build 0)  -->
<svg version="1.1" xmlns="http://www.w3.org/2000/svg" xmlns:xlink="http://www.w3.org/1999/xlink" x="0px" y="0px"
	 viewBox="0 0 360 360" style="enable-background:new 0 0 360 360;" xml:space="preserve">
<g id="Lightbulb">
	<g>
		<g>
			<path style="fill:#FFFFFF;" d="M231.725,263.566h-102.56l-0.69-14.312c-0.004-16.23-8.123-27.248-8.205-27.357
				c-1.605-2.23-37.893-53.087-37.893-90.623c0-39.761,33.96-94.839,97.721-94.839c67.071,0,97.241,54.616,97.241,93.4
				c0,38.679-25.004,75.788-34.417,89.757l-1.402,2.087c-8.757,13.134-9.795,27.853-9.804,28L231.725,263.566z M137.877,254.423
				h84.705v-5.031c0.051-0.973,1.161-17.529,11.33-32.786l1.426-2.125c8.987-13.335,32.857-48.761,32.857-84.647
				c0-34.987-27.333-84.257-88.098-84.257c-57.797,0-88.578,49.77-88.578,85.696c0,34.618,35.75,84.696,36.109,85.199
				c0.342,0.444,9.984,13.355,9.984,32.56L137.877,254.423z"/>
		</g>
		<g>
			<rect x="140.345" y="285.153" style="fill:#FFFFFF;" width="79.022" height="9.143"/>
		</g>
		<g>
			<rect x="150.794" y="315.292" style="fill:#FFFFFF;" width="58.125" height="9.143"/>
		</g>
		<g>
			<path style="fill:#FFFFFF;" d="M121.964,129.49l-9.121-0.616c1.48-21.96,13.717-41.658,32.73-52.69
				c18.993-11.02,42.145-11.882,61.926-2.301l-3.982,8.228c-17.045-8.25-36.989-7.509-53.355,1.98
				C133.783,93.595,123.24,110.569,121.964,129.49z"/>
		</g>
	</g>
</g>
<g id="Layer_1">
</g>
</svg>
