<?xml version="1.0" encoding="iso-8859-1"?>
<!-- Generator: Adobe Illustrator 19.2.1, SVG Export Plug-In . SVG Version: 6.00 Build 0)  -->
<svg version="1.1" xmlns="http://www.w3.org/2000/svg" xmlns:xlink="http://www.w3.org/1999/xlink" x="0px" y="0px"
	 viewBox="0 0 360 360" style="enable-background:new 0 0 360 360;" xml:space="preserve">
<g id="Analyze">
	<g>
		<g>
			<g>
				<g>
					<rect x="93.037" y="131.584" style="fill:#FFFFFF;" width="9.595" height="49.254"/>
				</g>
			</g>
		</g>
		<g>
			<g>
				<g>
					<rect x="131.19" y="111.652" style="fill:#FFFFFF;" width="9.595" height="69.187"/>
				</g>
			</g>
		</g>
		<g>
			<g>
				<g>
					<rect x="169.344" y="94.061" style="fill:#FFFFFF;" width="9.595" height="86.778"/>
				</g>
			</g>
		</g>
		<g>
			<g>
				<g>
					<path style="fill:#FFFFFF;" d="M138.446,242.291c-26.283,0-52.565-10.004-72.575-30.012
						c-40.018-40.02-40.018-105.135,0-145.151c40.02-40.011,105.139-40.016,145.153,0l0,0c40.02,40.016,40.02,105.13,0,145.151
						C191.016,232.287,164.731,242.291,138.446,242.291z M138.449,46.226c-23.951,0-47.901,9.114-66.134,27.346
						c-36.465,36.465-36.465,95.798,0,132.263c36.467,36.46,95.798,36.46,132.265,0c36.465-36.465,36.465-95.798,0-132.263
						C186.348,55.34,162.397,46.226,138.449,46.226z"/>
				</g>
			</g>
		</g>
		<g>
			<g>
				<g>
					
						<rect x="260.448" y="186.442" transform="matrix(0.7072 -0.707 0.707 0.7072 -109.8565 264.9809)" style="fill:#FFFFFF;" width="9.113" height="157.374"/>
				</g>
			</g>
		</g>
	</g>
</g>
<g id="Layer_1">
</g>
</svg>
