<svg xmlns="http://www.w3.org/2000/svg" width="32" height="32" viewBox="0 0 32 32"><path fill="#666" fill-rule="evenodd" d="M1.814 15.028a9.003 9.003 0 0 1 8.993-8.52c2.21-.01 4.348.78 6.02 2.224a32.11 32.11 0 0 1-2.29 2.367c-2.055-1.42-4.97-1.817-7.015-.19a5.775 5.775 0 0 0-.246 9.004c2.745 2.49 7.933 1.25 8.69-2.556-1.723 0-3.436 0-5.16-.057v-3.077h8.625a10.338 10.338 0 0 1-1.628 6.977c-2.244 3.152-6.75 4.08-10.262 2.726a9.022 9.022 0 0 1-5.727-8.898zm23.24-3.408h2.566v2.575h2.574v2.565H27.62v2.575h-2.566V16.76H22.48v-2.546h2.575c-.006-.871-.006-1.736 0-2.594z"/></svg>
