<svg id="Layer_1" data-name="Layer 1" xmlns="http://www.w3.org/2000/svg" viewBox="0 0 32 32"><defs><style>.cls-1{fill:#666;}</style></defs><title>instagram</title><g id="yGVY0x.tif"><path class="cls-1" d="M16,12.78A3.13,3.13,0,1,0,19.06,16,3.11,3.11,0,0,0,16,12.78Z"/><path class="cls-1" d="M25.07,10.49a4.84,4.84,0,0,0-4.68-3.87c-3-.07-6-0.08-8.95,0a4.88,4.88,0,0,0-4.81,4.76c-0.1,3-.1,6.06,0,9.09a5,5,0,0,0,4.92,4.77c0.26,0,.53.07,0.79,0.1h7.16c0.62-.09,1.25-0.15,1.85-0.29a5,5,0,0,0,3.89-4.67c0-.29.07-0.59,0.11-0.88V12.34C25.27,11.72,25.21,11.09,25.07,10.49ZM15.93,20.74a4.82,4.82,0,1,1,4.82-4.8A4.79,4.79,0,0,1,15.93,20.74Zm5-8.72a1.17,1.17,0,0,1-1.11-1.13A1.12,1.12,0,0,1,21,9.77a1.08,1.08,0,0,1,1.09,1.11A1.13,1.13,0,0,1,20.94,12Z"/></g></svg>