<svg xmlns="http://www.w3.org/2000/svg" viewBox="0 0 30 30"><defs><style>.cls-1{fill:#25a9e0}</style></defs><title>introduction</title><path class="cls-1" d="M15 30a15 15 0 1 1 15-15 15 15 0 0 1-15 15zm0-29a14 14 0 1 0 14 14A14 14 0 0 0 15 1z"/><path class="cls-1" d="M16 7.5a2.38 2.38 0 0 0-.51 1.5 1.32 1.32 0 0 0 .38 1 1.27 1.27 0 0 0 .88.35A1.46 1.46 0 0 0 18 9.61a2.58 2.58 0 0 0 .5-1.49 1.31 1.31 0 0 0-.35-.92 1.15 1.15 0 0 0-.88-.38A1.52 1.52 0 0 0 16 7.5zm-3.53 8.19a3.61 3.61 0 0 1 1.18-.76q.22 0 .22.29a7.79 7.79 0 0 1-.46 1.59l-.83 2.33a18.22 18.22 0 0 0-1 3.45q0 .6.71.6a4.43 4.43 0 0 0 2-.78 15.24 15.24 0 0 0 2.71-2.2l-.54-.54q-1.15 1-1.47 1t-.21-.24a2.22 2.22 0 0 1 .08-.5l1.89-5.6a7.49 7.49 0 0 0 .42-1.57q0-.65-.59-.65-1.24 0-4.62 3z"/></svg>