<svg xmlns="http://www.w3.org/2000/svg" width="32" height="32" viewBox="0 0 32 32"><path fill="#666" fill-rule="evenodd" d="M12.91 24.883v-12.75h4.29v1.81a5.6 5.6 0 0 1 .53-.72 5.53 5.53 0 0 1 .74-.67 3.4 3.4 0 0 1 1.13-.56 5.22 5.22 0 0 1 1.49-.2 4.65 4.65 0 0 1 3.58 1.46 6.07 6.07 0 0 1 1.33 4.32v7.31h-4.28v-6.82a3.69 3.69 0 0 0-.53-2.12 1.86 1.86 0 0 0-1.65-.77 2.13 2.13 0 0 0-1.37.44 2.74 2.74 0 0 0-.83 1.1 3.07 3.07 0 0 0-.14 1v7.11l-4.29.06zm-6.67 0v-12.75h4.3v12.75h-4.3zM6 8.203a2.06 2.06 0 0 1 .67-1.58 2.47 2.47 0 0 1 1.75-.62 2.4 2.4 0 0 1 1.73.62c.432.411.672.984.66 1.58a2 2 0 0 1-.66 1.57 2.47 2.47 0 0 1-1.76.63 2.37 2.37 0 0 1-1.72-.63A2.09 2.09 0 0 1 6 8.203z"/></svg>
