<svg id="Layer_1" data-name="Layer 1" xmlns="http://www.w3.org/2000/svg" viewBox="0 0 52 49.43"><defs><style>.cls-1{fill:#fff}</style></defs><title>n</title><path class="cls-1" d="M16.79 12.37a29.49 29.49 0 0 1 4.9-4.11 10.31 10.31 0 0 1 5.63-1.43q5.32 0 7.57 3.63A18 18 0 0 1 37.14 20v25.8a2 2 0 0 1-1.64 2.09 23 23 0 0 1-4.4.67v1.12H52v-.92c-.61-.06-1.28-.15-2-.26a15.47 15.47 0 0 1-2-.41 4.64 4.64 0 0 1-1.59-.77 1.52 1.52 0 0 1-.66-1.23V16q0-7-3.17-11.36A10.55 10.55 0 0 0 33.47.28a13.59 13.59 0 0 0-5.32 1.07 21.36 21.36 0 0 0-4.7 2.71A24.23 24.23 0 0 0 19.6 7.7a36.34 36.34 0 0 0-2.81 3.74zm-2.56 1.89V46a2.62 2.62 0 0 0 .72 1.48 3.05 3.05 0 0 0 1.23.67 7.75 7.75 0 0 0 1.64.26 13 13 0 0 1 1.95.26v1H0v-1a13.5 13.5 0 0 0 4-.92 2.44 2.44 0 0 0 1.69-2.36V10.21A3.65 3.65 0 0 0 5.58 9a2.33 2.33 0 0 0-.86-.92l-2.16-1.2C1.74 6.44.92 6 .1 5.7v-.61L13.51.28h.69z" transform="translate(0 -.28)"/></svg>