<svg xmlns="http://www.w3.org/2000/svg" width="32" height="32" viewBox="0 0 32 32"><path fill="#666" fill-rule="evenodd" d="M6 22.932a9.41 9.41 0 0 0 1 .05 8.54 8.54 0 0 0 5.34-1.8 4.25 4.25 0 0 1-2.51-.84 4.13 4.13 0 0 1-1.52-2.08c.268.043.539.066.81.07.381 0 .76-.047 1.13-.14a4.25 4.25 0 0 1-2.47-1.45 4 4 0 0 1-1-2.68v-.13c.6.327 1.267.509 1.95.53a4.24 4.24 0 0 1-1.4-1.5 4 4 0 0 1-.52-2 4.06 4.06 0 0 1 .69-2.11 12.15 12.15 0 0 0 3.89 3.08 12.19 12.19 0 0 0 5 1.3 4.59 4.59 0 0 1-.11-1 4 4 0 0 1 1.26-3 4.38 4.38 0 0 1 6.19.1 8.55 8.55 0 0 0 2.73-1 4.11 4.11 0 0 1-1.96 2.38 8.72 8.72 0 0 0 2.48-.65 8.92 8.92 0 0 1-2.16 2.18v.55a11.74 11.74 0 0 1-.51 3.39 12.12 12.12 0 0 1-1.54 3.24 12.83 12.83 0 0 1-2.46 2.75 11 11 0 0 1-3.44 1.91 12.82 12.82 0 0 1-4.3.71A12.14 12.14 0 0 1 6 22.932z"/></svg>
