<?xml version="1.0" encoding="iso-8859-1"?>
<!-- Generator: Adobe Illustrator 19.2.1, SVG Export Plug-In . SVG Version: 6.00 Build 0)  -->
<svg version="1.1" xmlns="http://www.w3.org/2000/svg" xmlns:xlink="http://www.w3.org/1999/xlink" x="0px" y="0px"
	 viewBox="0 0 360 360" style="enable-background:new 0 0 360 360;" xml:space="preserve">
<g id="Influencer">
	<g>
		<g>
			<path style="fill:#FFFFFF;" d="M177.882,225.69c-24.534,0-44.491-19.959-44.491-44.493c0-24.532,19.957-44.491,44.491-44.491
				s44.495,19.959,44.495,44.491C222.377,205.731,202.416,225.69,177.882,225.69z M177.882,145.86
				c-19.483,0-35.337,15.852-35.337,35.337s15.854,35.339,35.337,35.339c19.488,0,35.342-15.854,35.342-35.339
				S197.37,145.86,177.882,145.86z"/>
		</g>
		<g>
			<path style="fill:#FFFFFF;" d="M239.259,322.503h-9.154v-46.817c0-20.712-23.796-29.417-27.752-29.471h-44.688
				c-26.036,0-32.003,24.681-32.003,28.407v47.881h-9.154v-47.881c0-11.053,11.845-37.561,41.157-37.561h44.692
				c7.567,0,36.901,11.976,36.901,38.625V322.503z"/>
		</g>
		<g>
			<rect x="116.465" y="314.846" style="fill:#FFFFFF;" width="122.84" height="9.154"/>
		</g>
		<g>
			<path style="fill:#FFFFFF;" d="M252.834,238.348l-7.107-5.766c12.175-15.016,18.88-33.958,18.88-53.336
				c0-46.73-38.019-84.749-84.749-84.749s-84.749,38.019-84.749,84.749c0,16.987,5.002,33.37,14.468,47.381l-7.581,5.127
				c-10.495-15.532-16.042-33.688-16.042-52.507c0-51.779,42.126-93.903,93.903-93.903s93.903,42.124,93.903,93.903
				C273.761,200.718,266.328,221.707,252.834,238.348z"/>
		</g>
		<g>
			<path style="fill:#FFFFFF;" d="M282.088,281.722l-6.49-6.454c25.298-25.461,39.235-59.25,39.235-95.141
				c0-74.424-60.55-134.972-134.975-134.972S44.883,105.702,44.883,180.126c0,34.276,12.868,66.955,36.231,92.019l-6.696,6.242
				c-24.95-26.764-38.689-61.661-38.689-98.261C35.729,100.656,100.383,36,179.858,36s144.129,64.656,144.129,144.126
				C323.986,218.451,309.107,254.533,282.088,281.722z"/>
		</g>
	</g>
</g>
<g id="Layer_1">
</g>
</svg>
